<?xml version="1.0" encoding="UTF-8"?>
<svg width="279px" height="87px" viewBox="0 0 279 87" version="1.1" xmlns="http://www.w3.org/2000/svg" xmlns:xlink="http://www.w3.org/1999/xlink">
    <!-- Generator: Sketch 45.2 (43514) - http://www.bohemiancoding.com/sketch -->
    <title>tindhair</title>
    <desc>Created with Sketch.</desc>
    <defs></defs>
    <g id="Symbols" stroke="none" stroke-width="1" fill="none" fill-rule="evenodd">
        <g id="tindhair-orange" fill="#DF4723" fill-rule="nonzero">
            <g id="tindhair">
                <g id="h" transform="translate(114.649674, 7.094658)" stroke="#DF4723">
                    <g id="Group" transform="translate(0.244340, 0.048364)" stroke-width="0.5">
                        <path d="M0.0709465803,0.102969738 C3.41962517,0.185345529 6.76830376,0.0823757906 10.1169823,0.144157634 C10.1169823,18.9876197 10.102793,37.8102819 10.1169823,56.633356 C10.1169823,56.8187015 10.1169823,57.1893926 9.91833192,57.1276108 L0.0994671055,57.1276108 C0.0141893161,54.0179247 0.0851358963,50.8876446 0.0567572642,47.7779585 C0.0709465803,31.9000249 0.0567572642,16.0014973 0.0709465803,0.102969738 L0.0709465803,0.102969738 Z" id="Shape"></path>
                    </g>
                    <g id="Group" transform="translate(0.102447, 16.823846)" stroke-width="0.09">
                        <path d="M14.6149955,0.312164953 C15.2108049,0.156082477 15.8493241,0.269597005 16.4452754,0.141893161 C17.6939352,-0.0141893161 18.9284057,0.184461109 20.1628762,0.227029057 C21.0284245,0.212839741 21.8655941,0.46824743 22.7169531,0.638519222 C25.8811706,1.40474229 28.8751163,3.0932709 31.0460816,5.56221189 C31.4291932,6.20073112 32.0109551,6.66897855 32.3797355,7.32168708 C33.302041,8.78318664 33.9123235,10.414958 34.4371863,12.0609186 C34.7636824,13.2670105 34.9338123,14.5156703 35.0900367,15.7501408 C35.1609833,18.4886788 35.1184153,21.2414061 35.1326047,23.9799441 C35.1184153,29.4428308 35.146794,34.9057175 35.1184153,40.3686042 C31.7981154,40.3260362 28.4920047,40.3544149 25.1858941,40.3402255 C25.1575155,40.3260362 25.0865689,40.269279 25.0581903,40.2409003 C25.0440009,32.5930009 25.0581903,24.9448176 25.0581903,17.3109656 C25.0723796,16.3744707 24.9021078,15.4663545 24.7034574,14.5724276 C24.3487245,13.6643114 23.8946663,12.7987631 23.2703364,12.0609186 C22.9012723,11.6210498 22.3905988,11.3372635 21.9789668,10.954152 C21.3404476,10.5284725 20.5884138,10.3298221 19.8649006,10.1311717 C19.4817891,10.102793 19.0986775,10.1311717 18.7439446,10.0034678 C17.2256878,9.90414261 15.6790523,10.0318465 14.2601207,10.6136084 C13.2241588,11.1102345 12.2592853,11.7913216 11.57834,12.7420058 C10.457384,14.0758015 10.0884618,15.892034 10.1168405,17.5947519 C10.1168405,25.1718467 10.1310298,32.7631308 10.1168405,40.3402255 C6.76801997,40.3686042 3.41948328,40.3260362 0.0708046871,40.3686042 C0.0140474229,33.0611064 0.0708046871,25.7394193 0.042426055,18.4319216 C0.0566153711,17.4952848 0.028236739,16.5589318 0.0991833192,15.6222951 C0.283644428,15.1540477 0.15579869,14.6433742 0.297691851,14.1891742 C0.55309954,12.4580776 1.20580808,10.8121169 1.9294632,9.23710286 C2.638929,7.8607392 3.49028796,6.54113281 4.59705462,5.44855547 C5.46274479,4.56881788 6.35652981,3.64651233 7.44924904,3.03637174 C9.56359902,1.56082477 12.0609186,0.666897855 14.6149955,0.312164953 Z" id="Shape"></path>
                    </g>
                </g>
                <g id="r" transform="translate(210.259713, 24.060398)" stroke="#DF4723" stroke-width="0.09">
                    <path d="M15.040675,0.227029057 C16.2751455,0.198650425 17.4954267,-0.0425679482 18.7298972,0.156082477 C19.396795,0.241218373 20.0778822,0.227029057 20.7447801,0.255407689 C20.8724839,1.48987819 20.7731587,2.738538 20.8015373,3.9730085 L20.8015373,8.93926911 C20.8015373,9.25143407 20.8441053,9.57778834 20.7164014,9.87576397 C20.3900472,9.63468749 19.9501784,9.7196815 19.5812562,9.62035629 C18.0771887,9.49279433 16.5305532,9.56374091 15.1116216,10.1313136 C13.423093,10.7130755 11.9474041,11.947546 11.1244238,13.5509387 C10.8832054,13.8489144 10.8832054,14.2745938 10.6136084,14.5583802 C10.1737396,16.1475836 10.145361,17.8077335 10.1737396,19.4395049 C10.1595503,26.4206484 10.2163076,33.3876026 10.145361,40.3687461 C6.83925034,40.3261781 3.51895038,40.3687461 0.198650425,40.3403674 C0.170271793,40.3119888 0.127703844,40.2552315 0.0993252124,40.2268529 L0.0993252124,17.4530006 C0.0567572642,16.5023165 0.269597005,15.5800109 0.255407689,14.6435161 C0.482436746,14.1894579 0.425679482,13.6644533 0.567572642,13.1962058 C1.27703844,9.60630886 3.16421748,6.21506233 6.03045932,3.90220381 C6.58384265,3.2778739 7.37844435,2.97989826 8.03115289,2.4832722 C10.145361,1.19190255 12.6001127,0.567572642 15.040675,0.227029057 Z" id="Shape"></path>
                </g>
                <g id="i" transform="translate(196.921473, 25.053650)" stroke="#DF4723" stroke-width="0.09">
                    <path d="M0.0709465803,0.0709465803 C3.41962517,0.127703844 6.76830376,0.0567572642 10.1169823,0.0993252124 C10.1169823,13.0825494 10.102793,26.0514424 10.1169823,39.0206192 C10.1169823,39.148323 10.1169823,39.4037307 9.91833192,39.3611627 L0.0994671055,39.3611627 C0.0141893161,37.218576 0.0851358963,35.0618 0.0567572642,32.9192132 C0.0625748838,28.4314164 0.0635681359,23.9413492 0.0638519222,19.4497212 C0.0641357086,12.9920216 0.0625748838,6.53148407 0.0709465803,0.0709465803 L0.0709465803,0.0709465803 Z" id="Shape"></path>
                </g>
                <g id="a" transform="translate(148.000000, 8.000000)">
                    <g id="e" transform="translate(67.000000, 46.500000) rotate(180.000000) translate(-67.000000, -46.500000) translate(4.000000, 14.000000)" stroke="#DF4723" stroke-width="0.09">
                        <path d="M0.0851358963,0.0709465803 C0.510815378,0.269597005 0.780412383,0.681087171 1.12095597,1.00744144 C1.67433929,1.48987819 0.496767955,1.40474229 0.0425679482,0.269597005 L0.0851358963,0.0709465803 L0.0851358963,0.0709465803 Z M99.4671055,50.5281545 C100.318465,50.2018002 101.141445,49.7761207 102.006851,49.478287 C103.255511,48.9958502 104.475792,48.4140883 105.724452,47.9316515 C108.306908,46.7398909 110.974499,45.7466387 113.585475,44.6255409 C114.209805,44.2849973 114.919271,44.1289148 115.529411,43.7599926 C116.224688,43.4903956 116.919964,43.2490353 117.601051,42.9368704 C118.197003,42.5821375 118.87809,42.4402443 119.488231,42.1282213 C120.297022,41.8017251 121.077434,41.4329448 121.900414,41.1349691 C122.737584,40.6665798 123.674079,40.4396927 124.511248,39.9854926 C124.738277,39.8294102 125.1072,39.8719781 125.249093,39.6023811 C125.007874,39.2619794 125.135578,38.8362999 125.007874,38.4672358 C124.823413,37.8004799 124.638952,37.1476294 124.48287,36.4950628 C123.844351,34.5227479 122.922045,32.6355688 121.673385,30.9896082 C120.155128,28.7902642 118.069299,27.0165997 115.75644,25.7111826 C114.238184,24.788877 112.535466,24.2638723 110.832606,23.8098142 C109.782596,23.6821104 108.775155,23.3131882 107.710956,23.3273775 C106.746083,23.1996736 105.752831,23.1429164 104.802146,23.3131882 C103.113618,23.3415668 101.496036,23.753057 99.8926431,24.2213044 C97.0973479,25.2003672 94.4439458,26.6902454 92.301359,28.7476962 C91.6628398,29.3436475 91.1378351,30.038924 90.5276945,30.6490646 C89.5770104,31.8693458 88.7113202,33.1605735 88.0587535,34.5511265 C87.136448,36.6369559 86.2567104,38.8221106 86.1573852,41.1349691 C85.8453621,42.2417358 85.9445455,43.4052597 85.9303561,44.540405 C85.9019775,45.2640601 86.015492,45.9735259 86.1573852,46.6688024 C86.1148172,47.4065049 86.3986036,48.087734 86.4979288,48.7971998 C86.7391472,50.3012673 87.406045,51.6916784 88.0161856,53.0822314 C89.6905249,56.5160458 92.3295958,59.4958022 95.6358483,61.4397385 C97.8068137,62.7735342 100.218997,63.7242184 102.744696,64.0789513 C104.802146,64.4054475 106.916355,64.4620628 108.987995,64.1926077 C109.697461,64.2492231 110.378548,63.9370581 111.088014,63.8944902 C114.11048,63.1850244 117.076047,61.9079859 119.360527,59.7653992 C120.041614,59.2262052 120.680133,58.587686 121.219327,57.9064569 C122.127443,56.9841514 122.780152,55.8633373 123.43286,54.7565707 C124.05719,53.5787155 124.568006,52.3300557 124.936928,51.0389699 C124.738277,50.9536921 124.511248,50.9822126 124.312598,50.9822126 C120.992298,50.9965438 117.686187,50.9680233 114.365887,50.9822126 C114.053722,50.9822126 114.053722,51.4078921 113.855072,51.5781639 C113.287499,52.4011442 112.563844,53.0964207 111.797621,53.7491292 C110.690855,54.5438728 109.385437,54.9695523 108.09421,55.3525219 C107.753666,55.3952318 107.427312,55.3809006 107.115147,55.5087463 C106.320545,55.5653617 105.511754,55.5371249 104.702963,55.5229356 C103.809036,55.3526638 102.915109,55.1540134 102.049561,54.8702271 C100.715907,54.1891399 99.4103483,53.4087275 98.4030487,52.301819 C98.1474992,51.9897959 97.7361509,51.7485775 97.6508731,51.3369455 C97.878044,51.2376203 98.0908838,51.0815378 98.3461496,51.0389699 C98.7576397,50.9680233 99.0696628,50.641669 99.4671055,50.5281545 L99.4671055,50.5281545 Z M95.3804406,43.3483605 C95.1819321,42.8517345 95.3662513,42.2699725 95.3378727,41.7449678 C95.5650436,41.0211708 95.6359902,40.2550896 95.9054453,39.5312926 C96.5865325,37.9278999 97.4237021,36.3530277 98.6439833,35.0900367 C99.211556,34.6217893 99.6939927,34.0542166 100.346701,33.6994837 C100.829138,33.444076 101.297385,33.1602897 101.794011,32.9332607 C102.716317,32.6638056 103.610244,32.2381261 104.575259,32.2381261 C105.454855,32.0252863 106.363113,32.1388009 107.256898,32.1528483 C109.598135,32.4793445 111.953704,33.486644 113.47196,35.3454444 C113.628043,35.7145085 113.103038,35.7428871 112.890199,35.8847803 C111.967751,36.3955957 110.931931,36.6508615 110.009625,37.1760081 C109.598135,37.2469546 109.243402,37.5023623 108.846102,37.6300662 C105.908913,38.9071046 102.914967,40.0279187 100.006158,41.3618563 C98.4454748,41.9719969 96.8988393,42.6247054 95.3804406,43.3483605 Z" id="Shape"></path>
                    </g>
                    <g id="i" transform="translate(34.000000, 32.000000)" stroke="#DF4723" stroke-width="0.09">
                        <path d="M0.0152001922,0 C3.36387878,0.0356218915 6.71255737,-0.00890547288 10.061236,0.0178109458 C10.061236,8.16631863 10.0470466,16.3058318 10.061236,24.445523 C10.061236,24.5256723 10.061236,24.6859708 9.86258553,24.6592544 L0.0437207175,24.6592544 C-0.041557072,23.314528 0.0293895083,21.9608961 0.00101087618,20.6161697 C0.00682849576,17.7995467 0.00782174788,14.9814989 0.0081055342,12.1624715 C0.00838932052,8.10950171 0.00682849576,4.05475086 0.0152001922,0 L0.0152001922,0 Z" id="Shape"></path>
                    </g>
                    <path d="M45.9283514,27.2996943 C45.8428297,27.2524319 45.6717862,27.2051695 45.5541938,27.2051695 C44.9234709,27.2051695 43.5551229,25.9479887 42.9671608,24.8420478 C42.582313,24.1142063 42.3257477,23.5848671 42.1760847,23.1878626 C42.1012531,22.9799079 41.9943509,22.7719532 41.9515901,22.7246908 C41.9088292,22.6679759 41.8660683,22.573451 41.8660683,22.4978311 C41.8660683,22.4222112 41.801927,22.2331615 41.7164052,22.0724692 C41.6415737,21.9023245 41.4170791,21.3257228 41.2353454,20.7774785 C40.433579,18.4332619 39.3324865,16.1268551 38.5734809,15.2099639 C37.8679265,14.3403352 36.6171709,13.366729 35.1739913,12.5349102 C34.3187738,12.0528334 33.3673444,11.6841864 32.3624638,11.4478742 C30.6092679,11.0508698 28.171898,11.1453947 25.7238379,11.7219964 C22.548843,12.4592903 20.0045709,12.998082 18.9890001,13.1304169 C18.6682935,13.1776793 18.0910217,13.2532992 17.7061739,13.3005616 C15.3008746,13.6313987 14.488418,13.6975661 13.0559287,13.6975661 C11.9655264,13.6975661 11.217211,13.6503036 10.7040805,13.5557788 C10.2978522,13.4707064 9.82748261,13.3761815 9.65643911,13.3478241 C9.49608582,13.3100141 9.33573254,13.2438467 9.30366189,13.2060368 C9.27159123,13.1587743 9.17537926,13.1209644 9.07916729,13.1209644 C8.8012216,13.1209644 7.44356382,12.4687428 6.78077025,12.0244759 C6.09659625,11.5518516 4.54651453,10.2285035 4.0761449,9.69916421 C3.75543834,9.34942221 3.41335133,8.95241777 2.71848711,8.11114646 C2.30156858,7.61961716 1.73498699,6.73108341 0.409399856,4.49084408 C-0.0288991139,3.75355012 -0.071659989,3.64957277 0.078003074,3.52669044 C0.227666137,3.39435563 0.302497668,3.39435563 0.879769483,3.52669044 C1.56394349,3.68738272 1.89534027,3.75355012 3.2209274,3.98986229 C4.89929175,4.28288937 7.550466,4.13164959 10.0092163,3.58340536 C13.0024776,2.9217313 15.3650159,2.24115226 17.1395923,1.53221576 C17.7596249,1.28645111 20.1969948,0.577514614 21.1270439,0.379012395 C22.6557451,0.048175363 23.9920225,-0.0463495034 26.1514467,0.0198179031 C28.2360394,0.0765328229 29.5936971,0.189962662 30.2137298,0.341202449 C31.0582571,0.558609641 31.7745018,0.747659374 31.9776159,0.832731753 C32.0952083,0.8705417 32.7473117,1.08794889 33.4207955,1.30535609 C34.7998337,1.74962296 37.2265134,2.77049151 38.1244917,3.28092579 C40.4442692,4.60427392 41.9943509,6.11667178 43.1382043,8.20567133 C43.5978837,9.02803766 43.9185903,9.78423659 44.1110143,10.4742681 C44.5600034,12.0811908 44.8058785,13.1209644 44.9662318,14.0945705 C45.2976285,16.0512352 45.4152209,17.0815563 45.6076449,19.406868 C45.8642101,22.5829035 46.0780145,24.4261384 46.2597482,25.07836 C46.5056233,25.9290838 46.83702,26.7041877 47.0722049,26.9783098 C47.2111777,27.1390021 47.3180799,27.2996943 47.3180799,27.3280518 C47.3180799,27.4320291 46.1100852,27.4036717 45.9283514,27.2996943 Z" id="Shape"></path>
                </g>
                <g id="tind" transform="translate(0.102447, 0.080453)" stroke="#DF4723" stroke-width="0.09">
                    <path d="M26.0515843,0.0709465803 C26.4772638,0.269597005 26.7468608,0.681087171 27.0874043,1.00744144 C27.6407877,1.48987819 28.0524197,2.12839741 28.5916137,2.62502347 C29.2585116,3.26354269 29.6841911,4.07233371 30.2375744,4.79598883 C31.2024479,6.25748838 32.0538069,7.81831315 32.4936757,9.52103107 C32.9477338,10.684555 33.0186804,11.9474041 32.9903017,13.1960639 C33.0186804,14.3312092 32.7065154,15.4521652 32.1955581,16.4737959 C31.3159624,18.0204314 29.726759,19.0562515 28.0664672,19.6096348 C25.994827,20.1062609 23.7103471,20.1913967 21.7096536,19.3116592 C20.9858566,18.9143583 20.1630181,18.6447613 19.5812562,18.0204314 C18.2332711,16.9136647 17.4528587,15.1116216 17.7082664,13.3663357 C18.1055673,10.2588755 19.9643677,7.59128409 21.9508719,5.29261489 C22.135333,5.63315847 21.9791087,6.03045932 22.1069544,6.38519222 C22.2772262,7.13722598 22.5468232,7.93182767 23.1143959,8.47102169 C23.8096723,7.83250246 24.5476587,7.19398324 25.1436099,6.45613881 C25.682804,5.66153711 26.1225309,4.78179951 26.306992,3.84530465 C26.3497018,2.6534021 26.4632163,1.40474229 26.0090163,0.269597005 L26.0515843,0.0709465803 L26.0515843,0.0709465803 Z M0.0567572642,14.2460733 C3.37705722,14.274452 6.71154649,14.2176947 10.0319883,14.274452 C10.0319883,17.5805626 10.0602251,20.8866732 10.0176571,24.1927839 C12.3732255,24.2353518 14.7285101,24.2069732 17.0981258,24.2069732 C17.1265045,24.4623809 17.1406938,24.7177886 17.1406938,24.9731963 C17.1123152,27.6975449 17.1548831,30.4077043 17.1123152,33.132053 C14.7426994,33.1604316 12.3872729,33.132053 10.0176571,33.1462423 C10.0602251,38.0415563 10.0034678,42.9226811 10.0460358,47.8179951 C10.1311717,48.2436746 10.1879289,48.6693541 10.1737396,49.1092229 C10.1310298,49.5066656 10.3722481,49.8330199 10.4575259,50.2018002 C10.641987,51.0531592 11.1102345,51.8193822 11.6492866,52.486422 C12.4440302,53.2810237 13.465519,53.834407 14.5580964,54.0754835 C15.5513485,54.2317079 16.5446006,54.3167019 17.552184,54.2457553 C17.6087993,54.4160271 17.6373199,54.5862989 17.6373199,54.77076 C17.6231305,57.3248369 17.6231305,59.8789138 17.6373199,62.4188013 C17.6373199,62.7735342 17.5663733,63.1282671 17.509616,63.4686688 C16.0764951,63.4686688 14.6435161,63.567994 13.2102532,63.4686688 C12.3588943,63.2842077 11.4509199,63.3693436 10.6277977,63.0004214 C8.34331784,62.4612274 6.15816317,61.3260821 4.52639182,59.6091749 C2.12839741,57.2964582 0.837169647,54.0329155 0.312164953,50.7977515 C0.170271793,50.4430186 0.255407689,50.0315284 0.198508532,49.6484169 C-1.11022302e-16,48.8680045 0.0849940032,48.0448823 0.0566153711,47.2504225 C0.0425679482,36.2537025 0.0425679482,25.2427933 0.0567572642,14.2460733 L0.0567572642,14.2460733 Z M48.5274609,23.4407501 C49.1232703,23.2846676 49.7617895,23.3981822 50.3577408,23.2704783 C51.6064006,23.1143959 52.8408711,23.3130463 54.0753416,23.3556142 C54.9408899,23.3414249 55.7780595,23.5968326 56.6294185,23.7671044 C59.793636,24.5333275 62.7875817,26.2218561 64.958547,28.6907971 C65.3416585,29.3293163 65.9234205,29.7975637 66.2922008,30.4502723 C67.2145064,31.9117718 67.8247889,33.5435432 68.3496517,35.1895038 C68.6761478,36.3955957 68.8462777,37.6442555 69.0025021,38.878726 C69.0734487,41.617264 69.0308807,44.3699913 69.04507,47.1085293 C69.0308807,52.571416 69.0592593,58.0343027 69.0308807,63.4971893 C65.7105808,63.4546214 62.4044701,63.483 59.0983595,63.4688107 C59.0699808,63.4546214 58.9990343,63.3978641 58.9706556,63.3694855 C58.9564663,55.721586 58.9706556,48.0734028 58.9706556,40.4395508 C58.9848449,39.5030559 58.8145732,38.5949397 58.6159227,37.7010128 C58.2611898,36.7928965 57.8071317,35.9273483 57.1828018,35.1895038 C56.8137377,34.749635 56.3030642,34.4658487 55.8914322,34.0827372 C55.2529129,33.6570577 54.5008792,33.4584073 53.777366,33.2597568 C53.3942544,33.2313782 53.0111429,33.2597568 52.65641,33.132053 C51.1381532,33.0327278 49.5915177,33.1604316 48.1725861,33.7421936 C47.1366241,34.2388196 46.1717507,34.9199068 45.4908054,35.870591 C44.3698494,37.2043867 44.0009272,39.0206192 44.0293058,40.7233371 C44.0293058,48.3004319 44.0434951,55.8917159 44.0293058,63.4688107 C40.6804853,63.4971893 37.3319486,63.4546214 33.9832701,63.4971893 C33.9265128,56.1896916 33.9832701,48.8680045 33.9548914,41.5605067 C33.9690807,40.62387 33.9407021,39.687517 34.0116487,38.7508803 C34.1961098,38.2826328 34.0682641,37.7719593 34.2101572,37.3177593 C34.4655649,35.5866628 35.1182735,33.9407021 35.8419286,32.365688 C36.5513944,30.9893244 37.4027533,29.669718 38.50952,28.5771406 C39.3752102,27.697403 40.2689952,26.7750975 41.3617144,26.1649569 C43.4760644,24.6894099 45.973384,23.795483 48.5274609,23.4407501 Z M20.3616685,24.1927839 C23.7103471,24.2495411 27.0590257,24.1785946 30.4077043,24.2211625 C30.4077043,37.2043867 30.393515,50.1732797 30.4077043,63.1424564 C30.4077043,63.2701603 30.4077043,63.525568 30.2090539,63.483 L20.3901891,63.483 C20.3049113,61.3404133 20.3758579,59.1836373 20.3474792,57.0410505 C20.3532968,52.5532537 20.3542901,48.0631865 20.3545739,43.5715585 C20.3548577,37.1138589 20.3532968,30.6533214 20.3616685,24.1927839 L20.3616685,24.1927839 Z M110.775849,6.85343965 C107.66853,6.82506102 104.560928,6.85343965 101.45361,6.83925034 C101.226439,6.86762897 100.956984,6.76830376 100.772381,6.93857555 C100.800759,13.6075541 100.772381,20.290722 100.786712,26.9597005 C100.772381,27.2009189 100.82928,27.4421373 100.729955,27.6691663 C100.446168,27.6265984 100.304275,27.3570014 100.091435,27.2009189 C98.6583145,25.9664484 97.0550637,24.916439 95.267068,24.3062984 C94.0609761,23.838051 92.7982689,23.5968326 91.5212304,23.3698035 C90.0739202,23.3414249 88.6124207,23.298857 87.1507792,23.3839929 C86.9946967,23.4265608 86.8528036,23.4691288 86.696863,23.4833181 C83.4475096,23.9373762 80.4108541,25.455633 77.9136764,27.5414625 C76.5231234,28.8468795 75.1325704,30.2090539 74.1535076,31.8550145 C73.004173,33.4867859 72.2663286,35.3597756 71.5568628,37.2043867 C71.2305085,38.3679106 70.9040123,39.5172452 70.7621192,40.7091478 C70.4925222,42.5395695 70.6060367,44.4125593 70.6344153,46.2571703 C70.7053619,46.7396071 70.8614444,47.1936652 70.8756337,47.6761019 C71.1310414,49.2369267 71.5850995,50.7693728 72.2092875,52.2308724 C72.7342922,53.6356147 73.5856512,54.9126531 74.3660636,56.1896916 C74.9194469,56.8991574 75.4586409,57.6370018 76.1255387,58.2613317 C77.1187909,59.2403945 78.0977118,60.3045932 79.3463716,60.9856804 C80.8220605,62.1066364 82.5673463,62.7736761 84.2700643,63.4262428 C84.8943942,63.5397573 85.4761561,63.8944902 86.1146754,63.9086795 C86.6538694,63.9512475 87.1504954,64.2066552 87.6898313,64.1781346 C87.9736176,64.149756 88.2290253,64.3484064 88.5268591,64.3200278 C89.9032227,64.3625957 91.2937757,64.3625957 92.6701394,64.3200278 C92.8971684,64.3200278 93.1241975,64.2207026 93.3654159,64.2065133 C94.3159581,64.2207026 95.1956957,63.8517804 96.1180013,63.7240765 C97.3240931,63.2842077 98.6154628,63.0004214 99.7362769,62.3478547 C101.396427,61.5816317 102.900494,60.5032437 104.248479,59.2828206 C105.951197,57.8072736 107.327561,55.9626625 108.349192,53.9476377 C108.789061,53.0537108 109.285687,52.1881626 109.569473,51.2232891 C110.108809,49.8894934 110.349885,48.4705618 110.534488,47.0658195 C110.846511,45.831349 110.747328,44.5401212 110.775565,43.2630828 C110.775849,31.1313594 110.775849,18.9994942 110.775849,6.85343965 L110.775849,6.85343965 Z M100.687387,45.2781075 C100.602251,46.7823169 100.034678,48.215296 99.3677803,49.563281 C98.2468244,51.6774891 96.3596453,53.2950711 94.2170586,54.3167019 C93.8905624,54.4869737 93.464883,54.4729262 93.2379958,54.7849493 C92.8406949,54.7849493 92.4433941,54.7992805 92.0602826,54.9411737 C90.8398595,54.9695523 89.5771523,55.0830668 88.3852497,54.7425232 C87.8744343,54.5013049 87.3068617,54.4021215 86.7960463,54.1323826 C86.1575271,53.7776497 85.433872,53.5364314 84.9088673,52.9972374 C83.9156152,52.3019609 83.149534,51.3512767 82.4541156,50.3722139 C81.9007323,49.4215297 81.3473489,48.4424669 81.0919413,47.3640789 C80.8081549,46.7965062 80.8363917,46.157987 80.6804511,45.5620357 C80.6378831,44.0439208 80.5527472,42.4830961 80.9074801,41.0072653 C81.0637045,40.5390179 81.1630297,40.0423918 81.3331596,39.5741444 C81.7446498,38.8219687 82.0000575,37.984941 82.5392515,37.3038538 C82.8230378,36.7079025 83.3196639,36.2678918 83.7171066,35.7572184 C84.7813053,34.5369372 86.2428049,33.7565248 87.7183519,33.1463842 C88.2717352,33.0188222 88.8109292,32.7350359 89.392833,32.7350359 C90.5705463,32.4369184 91.7906856,32.6782787 92.9543514,32.8911184 C94.4867975,33.4445017 96.0050543,34.2107248 97.1969569,35.3458701 C97.6368257,35.7573602 97.963038,36.2681756 98.4030487,36.6796658 C100.219139,39.1199444 101.056167,42.2557832 100.687387,45.2781075 Z" id="Shape"></path>
                </g>
            </g>
        </g>
    </g>
</svg>